<?xml version="1.0" encoding="utf-8"?>
<svg xmlns="http://www.w3.org/2000/svg" xmlns:xlink="http://www.w3.org/1999/xlink" width="600" height="400" viewBox="0 0 2400 1600">
<defs>
  <clipPath id="clip850">
    <rect x="0" y="0" width="2400" height="1600"/>
  </clipPath>
</defs>
<path clip-path="url(#clip850)" d="
M0 1600 L2400 1600 L2400 0 L0 0  Z
  " fill="#ffffff" fill-rule="evenodd" fill-opacity="1"/>
<defs>
  <clipPath id="clip851">
    <rect x="480" y="0" width="1681" height="1600"/>
  </clipPath>
</defs>
<path clip-path="url(#clip850)" d="
M229.473 1410.9 L2352.76 1410.9 L2352.76 47.2441 L229.473 47.2441  Z
  " fill="#ffffff" fill-rule="evenodd" fill-opacity="1"/>
<defs>
  <clipPath id="clip852">
    <rect x="229" y="47" width="2124" height="1365"/>
  </clipPath>
</defs>
<polyline clip-path="url(#clip852)" style="stroke:#000000; stroke-width:2; stroke-opacity:0.1; fill:none" points="
  346.257,1410.9 346.257,47.2441 
  "/>
<polyline clip-path="url(#clip852)" style="stroke:#000000; stroke-width:2; stroke-opacity:0.1; fill:none" points="
  886.175,1410.9 886.175,47.2441 
  "/>
<polyline clip-path="url(#clip852)" style="stroke:#000000; stroke-width:2; stroke-opacity:0.1; fill:none" points="
  1426.09,1410.9 1426.09,47.2441 
  "/>
<polyline clip-path="url(#clip852)" style="stroke:#000000; stroke-width:2; stroke-opacity:0.1; fill:none" points="
  1966.01,1410.9 1966.01,47.2441 
  "/>
<polyline clip-path="url(#clip852)" style="stroke:#000000; stroke-width:2; stroke-opacity:0.1; fill:none" points="
  229.473,1372.3 2352.76,1372.3 
  "/>
<polyline clip-path="url(#clip852)" style="stroke:#000000; stroke-width:2; stroke-opacity:0.1; fill:none" points="
  229.473,1022.72 2352.76,1022.72 
  "/>
<polyline clip-path="url(#clip852)" style="stroke:#000000; stroke-width:2; stroke-opacity:0.1; fill:none" points="
  229.473,673.137 2352.76,673.137 
  "/>
<polyline clip-path="url(#clip852)" style="stroke:#000000; stroke-width:2; stroke-opacity:0.1; fill:none" points="
  229.473,323.554 2352.76,323.554 
  "/>
<polyline clip-path="url(#clip850)" style="stroke:#000000; stroke-width:4; stroke-opacity:1; fill:none" points="
  229.473,1410.9 2352.76,1410.9 
  "/>
<polyline clip-path="url(#clip850)" style="stroke:#000000; stroke-width:4; stroke-opacity:1; fill:none" points="
  229.473,1410.9 229.473,47.2441 
  "/>
<polyline clip-path="url(#clip850)" style="stroke:#000000; stroke-width:4; stroke-opacity:1; fill:none" points="
  346.257,1410.9 346.257,1394.53 
  "/>
<polyline clip-path="url(#clip850)" style="stroke:#000000; stroke-width:4; stroke-opacity:1; fill:none" points="
  886.175,1410.9 886.175,1394.53 
  "/>
<polyline clip-path="url(#clip850)" style="stroke:#000000; stroke-width:4; stroke-opacity:1; fill:none" points="
  1426.09,1410.9 1426.09,1394.53 
  "/>
<polyline clip-path="url(#clip850)" style="stroke:#000000; stroke-width:4; stroke-opacity:1; fill:none" points="
  1966.01,1410.9 1966.01,1394.53 
  "/>
<polyline clip-path="url(#clip850)" style="stroke:#000000; stroke-width:4; stroke-opacity:1; fill:none" points="
  229.473,1372.3 254.952,1372.3 
  "/>
<polyline clip-path="url(#clip850)" style="stroke:#000000; stroke-width:4; stroke-opacity:1; fill:none" points="
  229.473,1022.72 254.952,1022.72 
  "/>
<polyline clip-path="url(#clip850)" style="stroke:#000000; stroke-width:4; stroke-opacity:1; fill:none" points="
  229.473,673.137 254.952,673.137 
  "/>
<polyline clip-path="url(#clip850)" style="stroke:#000000; stroke-width:4; stroke-opacity:1; fill:none" points="
  229.473,323.554 254.952,323.554 
  "/>
<path clip-path="url(#clip850)" d="M 0 0 M346.257 1440.09 Q342.646 1440.09 340.817 1443.65 Q339.012 1447.19 339.012 1454.32 Q339.012 1461.43 340.817 1464.99 Q342.646 1468.54 346.257 1468.54 Q349.891 1468.54 351.697 1464.99 Q353.526 1461.43 353.526 1454.32 Q353.526 1447.19 351.697 1443.65 Q349.891 1440.09 346.257 1440.09 M346.257 1436.38 Q352.067 1436.38 355.123 1440.99 Q358.201 1445.57 358.201 1454.32 Q358.201 1463.05 355.123 1467.66 Q352.067 1472.24 346.257 1472.24 Q340.447 1472.24 337.368 1467.66 Q334.313 1463.05 334.313 1454.32 Q334.313 1445.57 337.368 1440.99 Q340.447 1436.38 346.257 1436.38 Z" fill="#000000" fill-rule="evenodd" fill-opacity="1" /><path clip-path="url(#clip850)" d="M 0 0 M824.453 1489.17 L832.092 1489.17 L832.092 1462.8 L823.781 1464.47 L823.781 1460.21 L832.045 1458.54 L836.721 1458.54 L836.721 1489.17 L844.36 1489.17 L844.36 1493.1 L824.453 1493.1 L824.453 1489.17 Z" fill="#000000" fill-rule="evenodd" fill-opacity="1" /><path clip-path="url(#clip850)" d="M 0 0 M877.601 1467.64 L867.022 1478.27 L877.601 1488.84 L874.846 1491.65 L864.221 1481.02 L853.596 1491.65 L850.865 1488.84 L861.42 1478.27 L850.865 1467.64 L853.596 1464.84 L864.221 1475.47 L874.846 1464.84 L877.601 1467.64 Z" fill="#000000" fill-rule="evenodd" fill-opacity="1" /><path clip-path="url(#clip850)" d="M 0 0 M883.48 1489.17 L891.119 1489.17 L891.119 1462.8 L882.809 1464.47 L882.809 1460.21 L891.073 1458.54 L895.749 1458.54 L895.749 1489.17 L903.387 1489.17 L903.387 1493.1 L883.48 1493.1 L883.48 1489.17 Z" fill="#000000" fill-rule="evenodd" fill-opacity="1" /><path clip-path="url(#clip850)" d="M 0 0 M918.457 1461.62 Q914.846 1461.62 913.017 1465.19 Q911.212 1468.73 911.212 1475.86 Q911.212 1482.97 913.017 1486.53 Q914.846 1490.07 918.457 1490.07 Q922.091 1490.07 923.897 1486.53 Q925.725 1482.97 925.725 1475.86 Q925.725 1468.73 923.897 1465.19 Q922.091 1461.62 918.457 1461.62 M918.457 1457.92 Q924.267 1457.92 927.323 1462.53 Q930.401 1467.11 930.401 1475.86 Q930.401 1484.59 927.323 1489.19 Q924.267 1493.78 918.457 1493.78 Q912.647 1493.78 909.568 1489.19 Q906.512 1484.59 906.512 1475.86 Q906.512 1467.11 909.568 1462.53 Q912.647 1457.92 918.457 1457.92 Z" fill="#000000" fill-rule="evenodd" fill-opacity="1" /><path clip-path="url(#clip850)" d="M 0 0 M931.586 1437.61 L946.501 1437.61 L946.501 1440.81 L935.066 1440.81 L935.066 1447.69 Q935.893 1447.41 936.721 1447.28 Q937.548 1447.13 938.376 1447.13 Q943.078 1447.13 945.824 1449.71 Q948.57 1452.28 948.57 1456.68 Q948.57 1461.22 945.748 1463.74 Q942.927 1466.24 937.793 1466.24 Q936.025 1466.24 934.182 1465.94 Q932.357 1465.64 930.401 1465.04 L930.401 1461.22 Q932.094 1462.14 933.899 1462.59 Q935.705 1463.04 937.717 1463.04 Q940.971 1463.04 942.871 1461.33 Q944.77 1459.62 944.77 1456.68 Q944.77 1453.75 942.871 1452.04 Q940.971 1450.33 937.717 1450.33 Q936.194 1450.33 934.671 1450.67 Q933.166 1451 931.586 1451.72 L931.586 1437.61 Z" fill="#000000" fill-rule="evenodd" fill-opacity="1" /><path clip-path="url(#clip850)" d="M 0 0 M1368.64 1489.17 L1384.96 1489.17 L1384.96 1493.1 L1363.02 1493.1 L1363.02 1489.17 Q1365.68 1486.41 1370.26 1481.78 Q1374.87 1477.13 1376.05 1475.79 Q1378.29 1473.27 1379.17 1471.53 Q1380.08 1469.77 1380.08 1468.08 Q1380.08 1465.33 1378.13 1463.59 Q1376.21 1461.85 1373.11 1461.85 Q1370.91 1461.85 1368.46 1462.62 Q1366.03 1463.38 1363.25 1464.93 L1363.25 1460.21 Q1366.07 1459.08 1368.53 1458.5 Q1370.98 1457.92 1373.02 1457.92 Q1378.39 1457.92 1381.58 1460.6 Q1384.78 1463.29 1384.78 1467.78 Q1384.78 1469.91 1383.97 1471.83 Q1383.18 1473.73 1381.07 1476.32 Q1380.49 1476.99 1377.39 1480.21 Q1374.29 1483.4 1368.64 1489.17 Z" fill="#000000" fill-rule="evenodd" fill-opacity="1" /><path clip-path="url(#clip850)" d="M 0 0 M1418.2 1467.64 L1407.62 1478.27 L1418.2 1488.84 L1415.45 1491.65 L1404.82 1481.02 L1394.2 1491.65 L1391.47 1488.84 L1402.02 1478.27 L1391.47 1467.64 L1394.2 1464.84 L1404.82 1475.47 L1415.45 1464.84 L1418.2 1467.64 Z" fill="#000000" fill-rule="evenodd" fill-opacity="1" /><path clip-path="url(#clip850)" d="M 0 0 M1424.08 1489.17 L1431.72 1489.17 L1431.72 1462.8 L1423.41 1464.47 L1423.41 1460.21 L1431.67 1458.54 L1436.35 1458.54 L1436.35 1489.17 L1443.99 1489.17 L1443.99 1493.1 L1424.08 1493.1 L1424.08 1489.17 Z" fill="#000000" fill-rule="evenodd" fill-opacity="1" /><path clip-path="url(#clip850)" d="M 0 0 M1459.06 1461.62 Q1455.45 1461.62 1453.62 1465.19 Q1451.81 1468.73 1451.81 1475.86 Q1451.81 1482.97 1453.62 1486.53 Q1455.45 1490.07 1459.06 1490.07 Q1462.69 1490.07 1464.5 1486.53 Q1466.33 1482.97 1466.33 1475.86 Q1466.33 1468.73 1464.5 1465.19 Q1462.69 1461.62 1459.06 1461.62 M1459.06 1457.92 Q1464.87 1457.92 1467.92 1462.53 Q1471 1467.11 1471 1475.86 Q1471 1484.59 1467.92 1489.19 Q1464.87 1493.78 1459.06 1493.78 Q1453.25 1493.78 1450.17 1489.19 Q1447.11 1484.59 1447.11 1475.86 Q1447.11 1467.11 1450.17 1462.53 Q1453.25 1457.92 1459.06 1457.92 Z" fill="#000000" fill-rule="evenodd" fill-opacity="1" /><path clip-path="url(#clip850)" d="M 0 0 M1472.19 1437.61 L1487.1 1437.61 L1487.1 1440.81 L1475.67 1440.81 L1475.67 1447.69 Q1476.49 1447.41 1477.32 1447.28 Q1478.15 1447.13 1478.98 1447.13 Q1483.68 1447.13 1486.42 1449.71 Q1489.17 1452.28 1489.17 1456.68 Q1489.17 1461.22 1486.35 1463.74 Q1483.53 1466.24 1478.39 1466.24 Q1476.63 1466.24 1474.78 1465.94 Q1472.96 1465.64 1471 1465.04 L1471 1461.22 Q1472.7 1462.14 1474.5 1462.59 Q1476.31 1463.04 1478.32 1463.04 Q1481.57 1463.04 1483.47 1461.33 Q1485.37 1459.62 1485.37 1456.68 Q1485.37 1453.75 1483.47 1452.04 Q1481.57 1450.33 1478.32 1450.33 Q1476.8 1450.33 1475.27 1450.67 Q1473.77 1451 1472.19 1451.72 L1472.19 1437.61 Z" fill="#000000" fill-rule="evenodd" fill-opacity="1" /><path clip-path="url(#clip850)" d="M 0 0 M1918.16 1474.47 Q1921.51 1475.19 1923.39 1477.46 Q1925.28 1479.72 1925.28 1483.06 Q1925.28 1488.17 1921.77 1490.97 Q1918.25 1493.78 1911.77 1493.78 Q1909.59 1493.78 1907.28 1493.34 Q1904.98 1492.92 1902.53 1492.06 L1902.53 1487.55 Q1904.47 1488.68 1906.79 1489.26 Q1909.1 1489.84 1911.63 1489.84 Q1916.03 1489.84 1918.32 1488.1 Q1920.63 1486.37 1920.63 1483.06 Q1920.63 1480 1918.48 1478.29 Q1916.35 1476.55 1912.53 1476.55 L1908.5 1476.55 L1908.5 1472.71 L1912.72 1472.71 Q1916.16 1472.71 1917.99 1471.34 Q1919.82 1469.96 1919.82 1467.36 Q1919.82 1464.7 1917.92 1463.29 Q1916.05 1461.85 1912.53 1461.85 Q1910.61 1461.85 1908.41 1462.27 Q1906.21 1462.69 1903.57 1463.57 L1903.57 1459.4 Q1906.23 1458.66 1908.55 1458.29 Q1910.89 1457.92 1912.95 1457.92 Q1918.27 1457.92 1921.37 1460.35 Q1924.47 1462.76 1924.47 1466.88 Q1924.47 1469.75 1922.83 1471.74 Q1921.19 1473.71 1918.16 1474.47 Z" fill="#000000" fill-rule="evenodd" fill-opacity="1" /><path clip-path="url(#clip850)" d="M 0 0 M1958.53 1467.64 L1947.95 1478.27 L1958.53 1488.84 L1955.77 1491.65 L1945.15 1481.02 L1934.52 1491.65 L1931.79 1488.84 L1942.34 1478.27 L1931.79 1467.64 L1934.52 1464.84 L1945.15 1475.47 L1955.77 1464.84 L1958.53 1467.64 Z" fill="#000000" fill-rule="evenodd" fill-opacity="1" /><path clip-path="url(#clip850)" d="M 0 0 M1964.4 1489.17 L1972.04 1489.17 L1972.04 1462.8 L1963.73 1464.47 L1963.73 1460.21 L1972 1458.54 L1976.67 1458.54 L1976.67 1489.17 L1984.31 1489.17 L1984.31 1493.1 L1964.4 1493.1 L1964.4 1489.17 Z" fill="#000000" fill-rule="evenodd" fill-opacity="1" /><path clip-path="url(#clip850)" d="M 0 0 M1999.38 1461.62 Q1995.77 1461.62 1993.94 1465.19 Q1992.14 1468.73 1992.14 1475.86 Q1992.14 1482.97 1993.94 1486.53 Q1995.77 1490.07 1999.38 1490.07 Q2003.02 1490.07 2004.82 1486.53 Q2006.65 1482.97 2006.65 1475.86 Q2006.65 1468.73 2004.82 1465.19 Q2003.02 1461.62 1999.38 1461.62 M1999.38 1457.92 Q2005.19 1457.92 2008.25 1462.53 Q2011.33 1467.11 2011.33 1475.86 Q2011.33 1484.59 2008.25 1489.19 Q2005.19 1493.78 1999.38 1493.78 Q1993.57 1493.78 1990.49 1489.19 Q1987.44 1484.59 1987.44 1475.86 Q1987.44 1467.11 1990.49 1462.53 Q1993.57 1457.92 1999.38 1457.92 Z" fill="#000000" fill-rule="evenodd" fill-opacity="1" /><path clip-path="url(#clip850)" d="M 0 0 M2012.51 1437.61 L2027.43 1437.61 L2027.43 1440.81 L2015.99 1440.81 L2015.99 1447.69 Q2016.82 1447.41 2017.65 1447.28 Q2018.47 1447.13 2019.3 1447.13 Q2024 1447.13 2026.75 1449.71 Q2029.49 1452.28 2029.49 1456.68 Q2029.49 1461.22 2026.67 1463.74 Q2023.85 1466.24 2018.72 1466.24 Q2016.95 1466.24 2015.11 1465.94 Q2013.28 1465.64 2011.33 1465.04 L2011.33 1461.22 Q2013.02 1462.14 2014.82 1462.59 Q2016.63 1463.04 2018.64 1463.04 Q2021.9 1463.04 2023.8 1461.33 Q2025.7 1459.62 2025.7 1456.68 Q2025.7 1453.75 2023.8 1452.04 Q2021.9 1450.33 2018.64 1450.33 Q2017.12 1450.33 2015.6 1450.67 Q2014.09 1451 2012.51 1451.72 L2012.51 1437.61 Z" fill="#000000" fill-rule="evenodd" fill-opacity="1" /><path clip-path="url(#clip850)" d="M 0 0 M181.528 1358.1 Q177.917 1358.1 176.089 1361.67 Q174.283 1365.21 174.283 1372.34 Q174.283 1379.44 176.089 1383.01 Q177.917 1386.55 181.528 1386.55 Q185.163 1386.55 186.968 1383.01 Q188.797 1379.44 188.797 1372.34 Q188.797 1365.21 186.968 1361.67 Q185.163 1358.1 181.528 1358.1 M181.528 1354.4 Q187.338 1354.4 190.394 1359 Q193.473 1363.59 193.473 1372.34 Q193.473 1381.06 190.394 1385.67 Q187.338 1390.25 181.528 1390.25 Q175.718 1390.25 172.639 1385.67 Q169.584 1381.06 169.584 1372.34 Q169.584 1363.59 172.639 1359 Q175.718 1354.4 181.528 1354.4 Z" fill="#000000" fill-rule="evenodd" fill-opacity="1" /><path clip-path="url(#clip850)" d="M 0 0 M123.126 1036.06 L139.445 1036.06 L139.445 1040 L117.501 1040 L117.501 1036.06 Q120.163 1033.31 124.746 1028.68 Q129.353 1024.03 130.533 1022.69 Q132.779 1020.16 133.658 1018.43 Q134.561 1016.67 134.561 1014.98 Q134.561 1012.22 132.617 1010.49 Q130.695 1008.75 127.593 1008.75 Q125.394 1008.75 122.941 1009.51 Q120.51 1010.28 117.732 1011.83 L117.732 1007.11 Q120.556 1005.97 123.01 1005.39 Q125.464 1004.81 127.501 1004.81 Q132.871 1004.81 136.066 1007.5 Q139.26 1010.19 139.26 1014.68 Q139.26 1016.81 138.45 1018.73 Q137.663 1020.63 135.556 1023.22 Q134.978 1023.89 131.876 1027.11 Q128.774 1030.3 123.126 1036.06 Z" fill="#000000" fill-rule="evenodd" fill-opacity="1" /><path clip-path="url(#clip850)" d="M 0 0 M154.515 1008.52 Q150.903 1008.52 149.075 1012.08 Q147.269 1015.63 147.269 1022.75 Q147.269 1029.86 149.075 1033.43 Q150.903 1036.97 154.515 1036.97 Q158.149 1036.97 159.954 1033.43 Q161.783 1029.86 161.783 1022.75 Q161.783 1015.63 159.954 1012.08 Q158.149 1008.52 154.515 1008.52 M154.515 1004.81 Q160.325 1004.81 163.38 1009.42 Q166.459 1014 166.459 1022.75 Q166.459 1031.48 163.38 1036.09 Q160.325 1040.67 154.515 1040.67 Q148.704 1040.67 145.626 1036.09 Q142.57 1031.48 142.57 1022.75 Q142.57 1014 145.626 1009.42 Q148.704 1004.81 154.515 1004.81 Z" fill="#000000" fill-rule="evenodd" fill-opacity="1" /><path clip-path="url(#clip850)" d="M 0 0 M181.528 1008.52 Q177.917 1008.52 176.089 1012.08 Q174.283 1015.63 174.283 1022.75 Q174.283 1029.86 176.089 1033.43 Q177.917 1036.97 181.528 1036.97 Q185.163 1036.97 186.968 1033.43 Q188.797 1029.86 188.797 1022.75 Q188.797 1015.63 186.968 1012.08 Q185.163 1008.52 181.528 1008.52 M181.528 1004.81 Q187.338 1004.81 190.394 1009.42 Q193.473 1014 193.473 1022.75 Q193.473 1031.48 190.394 1036.09 Q187.338 1040.67 181.528 1040.67 Q175.718 1040.67 172.639 1036.09 Q169.584 1031.48 169.584 1022.75 Q169.584 1014 172.639 1009.42 Q175.718 1004.81 181.528 1004.81 Z" fill="#000000" fill-rule="evenodd" fill-opacity="1" /><path clip-path="url(#clip850)" d="M 0 0 M129.862 659.931 L118.056 678.38 L129.862 678.38 L129.862 659.931 M128.635 655.857 L134.515 655.857 L134.515 678.38 L139.445 678.38 L139.445 682.269 L134.515 682.269 L134.515 690.417 L129.862 690.417 L129.862 682.269 L114.26 682.269 L114.26 677.755 L128.635 655.857 Z" fill="#000000" fill-rule="evenodd" fill-opacity="1" /><path clip-path="url(#clip850)" d="M 0 0 M154.515 658.936 Q150.903 658.936 149.075 662.501 Q147.269 666.042 147.269 673.172 Q147.269 680.278 149.075 683.843 Q150.903 687.385 154.515 687.385 Q158.149 687.385 159.954 683.843 Q161.783 680.278 161.783 673.172 Q161.783 666.042 159.954 662.501 Q158.149 658.936 154.515 658.936 M154.515 655.232 Q160.325 655.232 163.38 659.839 Q166.459 664.422 166.459 673.172 Q166.459 681.899 163.38 686.505 Q160.325 691.088 154.515 691.088 Q148.704 691.088 145.626 686.505 Q142.57 681.899 142.57 673.172 Q142.57 664.422 145.626 659.839 Q148.704 655.232 154.515 655.232 Z" fill="#000000" fill-rule="evenodd" fill-opacity="1" /><path clip-path="url(#clip850)" d="M 0 0 M181.528 658.936 Q177.917 658.936 176.089 662.501 Q174.283 666.042 174.283 673.172 Q174.283 680.278 176.089 683.843 Q177.917 687.385 181.528 687.385 Q185.163 687.385 186.968 683.843 Q188.797 680.278 188.797 673.172 Q188.797 666.042 186.968 662.501 Q185.163 658.936 181.528 658.936 M181.528 655.232 Q187.338 655.232 190.394 659.839 Q193.473 664.422 193.473 673.172 Q193.473 681.899 190.394 686.505 Q187.338 691.088 181.528 691.088 Q175.718 691.088 172.639 686.505 Q169.584 681.899 169.584 673.172 Q169.584 664.422 172.639 659.839 Q175.718 655.232 181.528 655.232 Z" fill="#000000" fill-rule="evenodd" fill-opacity="1" /><path clip-path="url(#clip850)" d="M 0 0 M127.917 321.691 Q124.769 321.691 122.918 323.844 Q121.089 325.996 121.089 329.746 Q121.089 333.473 122.918 335.649 Q124.769 337.802 127.917 337.802 Q131.066 337.802 132.894 335.649 Q134.746 333.473 134.746 329.746 Q134.746 325.996 132.894 323.844 Q131.066 321.691 127.917 321.691 M137.2 307.038 L137.2 311.297 Q135.441 310.464 133.635 310.024 Q131.853 309.584 130.093 309.584 Q125.464 309.584 123.01 312.709 Q120.58 315.834 120.232 322.154 Q121.598 320.14 123.658 319.075 Q125.718 317.987 128.195 317.987 Q133.404 317.987 136.413 321.159 Q139.445 324.307 139.445 329.746 Q139.445 335.07 136.297 338.288 Q133.149 341.506 127.917 341.506 Q121.922 341.506 118.751 336.922 Q115.58 332.316 115.58 323.589 Q115.58 315.395 119.468 310.534 Q123.357 305.649 129.908 305.649 Q131.667 305.649 133.45 305.997 Q135.255 306.344 137.2 307.038 Z" fill="#000000" fill-rule="evenodd" fill-opacity="1" /><path clip-path="url(#clip850)" d="M 0 0 M154.515 309.353 Q150.903 309.353 149.075 312.918 Q147.269 316.459 147.269 323.589 Q147.269 330.695 149.075 334.26 Q150.903 337.802 154.515 337.802 Q158.149 337.802 159.954 334.26 Q161.783 330.695 161.783 323.589 Q161.783 316.459 159.954 312.918 Q158.149 309.353 154.515 309.353 M154.515 305.649 Q160.325 305.649 163.38 310.256 Q166.459 314.839 166.459 323.589 Q166.459 332.316 163.38 336.922 Q160.325 341.506 154.515 341.506 Q148.704 341.506 145.626 336.922 Q142.57 332.316 142.57 323.589 Q142.57 314.839 145.626 310.256 Q148.704 305.649 154.515 305.649 Z" fill="#000000" fill-rule="evenodd" fill-opacity="1" /><path clip-path="url(#clip850)" d="M 0 0 M181.528 309.353 Q177.917 309.353 176.089 312.918 Q174.283 316.459 174.283 323.589 Q174.283 330.695 176.089 334.26 Q177.917 337.802 181.528 337.802 Q185.163 337.802 186.968 334.26 Q188.797 330.695 188.797 323.589 Q188.797 316.459 186.968 312.918 Q185.163 309.353 181.528 309.353 M181.528 305.649 Q187.338 305.649 190.394 310.256 Q193.473 314.839 193.473 323.589 Q193.473 332.316 190.394 336.922 Q187.338 341.506 181.528 341.506 Q175.718 341.506 172.639 336.922 Q169.584 332.316 169.584 323.589 Q169.584 314.839 172.639 310.256 Q175.718 305.649 181.528 305.649 Z" fill="#000000" fill-rule="evenodd" fill-opacity="1" /><path clip-path="url(#clip850)" d="M 0 0 M956.74 1514.67 L965.397 1514.67 L986.467 1554.42 L986.467 1514.67 L992.706 1514.67 L992.706 1562.19 L984.049 1562.19 L962.978 1522.43 L962.978 1562.19 L956.74 1562.19 L956.74 1514.67 Z" fill="#000000" fill-rule="evenodd" fill-opacity="1" /><path clip-path="url(#clip850)" d="M 0 0 M998.244 1548.12 L998.244 1526.54 L1004.1 1526.54 L1004.1 1547.89 Q1004.1 1552.96 1006.07 1555.5 Q1008.05 1558.02 1011.99 1558.02 Q1016.74 1558.02 1019.47 1554.99 Q1022.24 1551.97 1022.24 1546.75 L1022.24 1526.54 L1028.1 1526.54 L1028.1 1562.19 L1022.24 1562.19 L1022.24 1556.71 Q1020.11 1559.96 1017.28 1561.55 Q1014.48 1563.11 1010.75 1563.11 Q1004.61 1563.11 1001.43 1559.29 Q998.244 1555.47 998.244 1548.12 M1012.98 1525.68 L1012.98 1525.68 Z" fill="#000000" fill-rule="evenodd" fill-opacity="1" /><path clip-path="url(#clip850)" d="M 0 0 M1062 1533.38 Q1064.19 1529.43 1067.25 1527.56 Q1070.3 1525.68 1074.44 1525.68 Q1080.01 1525.68 1083.04 1529.59 Q1086.06 1533.48 1086.06 1540.67 L1086.06 1562.19 L1080.17 1562.19 L1080.17 1540.86 Q1080.17 1535.74 1078.36 1533.25 Q1076.54 1530.77 1072.82 1530.77 Q1068.27 1530.77 1065.63 1533.79 Q1062.98 1536.82 1062.98 1542.04 L1062.98 1562.19 L1057.1 1562.19 L1057.1 1540.86 Q1057.1 1535.7 1055.28 1533.25 Q1053.47 1530.77 1049.68 1530.77 Q1045.19 1530.77 1042.55 1533.83 Q1039.91 1536.85 1039.91 1542.04 L1039.91 1562.19 L1034.02 1562.19 L1034.02 1526.54 L1039.91 1526.54 L1039.91 1532.08 Q1041.91 1528.8 1044.71 1527.24 Q1047.51 1525.68 1051.37 1525.68 Q1055.25 1525.68 1057.95 1527.65 Q1060.69 1529.62 1062 1533.38 Z" fill="#000000" fill-rule="evenodd" fill-opacity="1" /><path clip-path="url(#clip850)" d="M 0 0 M1117.79 1544.39 Q1117.79 1537.93 1115.12 1534.27 Q1112.48 1530.58 1107.83 1530.58 Q1103.18 1530.58 1100.51 1534.27 Q1097.87 1537.93 1097.87 1544.39 Q1097.87 1550.85 1100.51 1554.55 Q1103.18 1558.21 1107.83 1558.21 Q1112.48 1558.21 1115.12 1554.55 Q1117.79 1550.85 1117.79 1544.39 M1097.87 1531.95 Q1099.71 1528.77 1102.51 1527.24 Q1105.35 1525.68 1109.26 1525.68 Q1115.75 1525.68 1119.8 1530.83 Q1123.87 1535.99 1123.87 1544.39 Q1123.87 1552.8 1119.8 1557.95 Q1115.75 1563.11 1109.26 1563.11 Q1105.35 1563.11 1102.51 1561.58 Q1099.71 1560.02 1097.87 1556.84 L1097.87 1562.19 L1091.98 1562.19 L1091.98 1512.66 L1097.87 1512.66 L1097.87 1531.95 Z" fill="#000000" fill-rule="evenodd" fill-opacity="1" /><path clip-path="url(#clip850)" d="M 0 0 M1160.51 1542.9 L1160.51 1545.76 L1133.58 1545.76 Q1133.96 1551.81 1137.21 1554.99 Q1140.49 1558.14 1146.31 1558.14 Q1149.68 1558.14 1152.84 1557.32 Q1156.02 1556.49 1159.14 1554.83 L1159.14 1560.37 Q1155.99 1561.71 1152.68 1562.41 Q1149.37 1563.11 1145.96 1563.11 Q1137.43 1563.11 1132.43 1558.14 Q1127.47 1553.18 1127.47 1544.71 Q1127.47 1535.96 1132.18 1530.83 Q1136.92 1525.68 1144.94 1525.68 Q1152.14 1525.68 1156.3 1530.33 Q1160.51 1534.94 1160.51 1542.9 M1154.65 1541.18 Q1154.59 1536.37 1151.94 1533.51 Q1149.33 1530.64 1145.01 1530.64 Q1140.1 1530.64 1137.14 1533.41 Q1134.22 1536.18 1133.77 1541.21 L1154.65 1541.18 Z" fill="#000000" fill-rule="evenodd" fill-opacity="1" /><path clip-path="url(#clip850)" d="M 0 0 M1187.31 1532.01 Q1186.32 1531.44 1185.14 1531.18 Q1184 1530.9 1182.59 1530.9 Q1177.63 1530.9 1174.96 1534.14 Q1172.31 1537.36 1172.31 1543.41 L1172.31 1562.19 L1166.43 1562.19 L1166.43 1526.54 L1172.31 1526.54 L1172.31 1532.08 Q1174.16 1528.83 1177.12 1527.27 Q1180.08 1525.68 1184.31 1525.68 Q1184.92 1525.68 1185.65 1525.77 Q1186.38 1525.84 1187.27 1526 L1187.31 1532.01 Z" fill="#000000" fill-rule="evenodd" fill-opacity="1" /><path clip-path="url(#clip850)" d="M 0 0 M1227.98 1530.64 Q1223.27 1530.64 1220.53 1534.34 Q1217.8 1538 1217.8 1544.39 Q1217.8 1550.79 1220.5 1554.48 Q1223.24 1558.14 1227.98 1558.14 Q1232.66 1558.14 1235.4 1554.45 Q1238.14 1550.76 1238.14 1544.39 Q1238.14 1538.06 1235.4 1534.37 Q1232.66 1530.64 1227.98 1530.64 M1227.98 1525.68 Q1235.62 1525.68 1239.98 1530.64 Q1244.34 1535.61 1244.34 1544.39 Q1244.34 1553.15 1239.98 1558.14 Q1235.62 1563.11 1227.98 1563.11 Q1220.31 1563.11 1215.95 1558.14 Q1211.62 1553.15 1211.62 1544.39 Q1211.62 1535.61 1215.95 1530.64 Q1220.31 1525.68 1227.98 1525.68 Z" fill="#000000" fill-rule="evenodd" fill-opacity="1" /><path clip-path="url(#clip850)" d="M 0 0 M1268.53 1512.66 L1268.53 1517.53 L1262.93 1517.53 Q1259.78 1517.53 1258.54 1518.8 Q1257.33 1520.08 1257.33 1523.39 L1257.33 1526.54 L1266.97 1526.54 L1266.97 1531.09 L1257.33 1531.09 L1257.33 1562.19 L1251.44 1562.19 L1251.44 1531.09 L1245.84 1531.09 L1245.84 1526.54 L1251.44 1526.54 L1251.44 1524.05 Q1251.44 1518.1 1254.21 1515.4 Q1256.98 1512.66 1262.99 1512.66 L1268.53 1512.66 Z" fill="#000000" fill-rule="evenodd" fill-opacity="1" /><path clip-path="url(#clip850)" d="M 0 0 M1295.65 1514.67 L1302.08 1514.67 L1302.08 1562.19 L1295.65 1562.19 L1295.65 1514.67 Z" fill="#000000" fill-rule="evenodd" fill-opacity="1" /><path clip-path="url(#clip850)" d="M 0 0 M1337.85 1540.67 L1337.85 1562.19 L1332 1562.19 L1332 1540.86 Q1332 1535.8 1330.02 1533.29 Q1328.05 1530.77 1324.1 1530.77 Q1319.36 1530.77 1316.62 1533.79 Q1313.89 1536.82 1313.89 1542.04 L1313.89 1562.19 L1308 1562.19 L1308 1526.54 L1313.89 1526.54 L1313.89 1532.08 Q1315.99 1528.86 1318.82 1527.27 Q1321.69 1525.68 1325.41 1525.68 Q1331.55 1525.68 1334.7 1529.5 Q1337.85 1533.29 1337.85 1540.67 Z" fill="#000000" fill-rule="evenodd" fill-opacity="1" /><path clip-path="url(#clip850)" d="M 0 0 M1366.72 1527.59 L1366.72 1533.13 Q1364.24 1531.85 1361.57 1531.22 Q1358.89 1530.58 1356.03 1530.58 Q1351.67 1530.58 1349.47 1531.92 Q1347.31 1533.25 1347.31 1535.93 Q1347.31 1537.96 1348.87 1539.14 Q1350.43 1540.29 1355.14 1541.34 L1357.14 1541.78 Q1363.38 1543.12 1365.99 1545.57 Q1368.63 1547.99 1368.63 1552.35 Q1368.63 1557.32 1364.69 1560.21 Q1360.77 1563.11 1353.9 1563.11 Q1351.03 1563.11 1347.91 1562.54 Q1344.82 1561.99 1341.39 1560.88 L1341.39 1554.83 Q1344.63 1556.52 1347.79 1557.38 Q1350.94 1558.21 1354.02 1558.21 Q1358.16 1558.21 1360.39 1556.81 Q1362.62 1555.37 1362.62 1552.8 Q1362.62 1550.41 1360.99 1549.14 Q1359.4 1547.86 1353.96 1546.68 L1351.92 1546.21 Q1346.48 1545.06 1344.06 1542.71 Q1341.64 1540.32 1341.64 1536.18 Q1341.64 1531.15 1345.21 1528.42 Q1348.77 1525.68 1355.33 1525.68 Q1358.57 1525.68 1361.44 1526.16 Q1364.3 1526.63 1366.72 1527.59 Z" fill="#000000" fill-rule="evenodd" fill-opacity="1" /><path clip-path="url(#clip850)" d="M 0 0 M1380.57 1516.42 L1380.57 1526.54 L1392.63 1526.54 L1392.63 1531.09 L1380.57 1531.09 L1380.57 1550.44 Q1380.57 1554.8 1381.75 1556.04 Q1382.96 1557.28 1386.62 1557.28 L1392.63 1557.28 L1392.63 1562.19 L1386.62 1562.19 Q1379.84 1562.19 1377.26 1559.67 Q1374.68 1557.12 1374.68 1550.44 L1374.68 1531.09 L1370.38 1531.09 L1370.38 1526.54 L1374.68 1526.54 L1374.68 1516.42 L1380.57 1516.42 Z" fill="#000000" fill-rule="evenodd" fill-opacity="1" /><path clip-path="url(#clip850)" d="M 0 0 M1419.43 1532.01 Q1418.44 1531.44 1417.27 1531.18 Q1416.12 1530.9 1414.72 1530.9 Q1409.76 1530.9 1407.08 1534.14 Q1404.44 1537.36 1404.44 1543.41 L1404.44 1562.19 L1398.55 1562.19 L1398.55 1526.54 L1404.44 1526.54 L1404.44 1532.08 Q1406.29 1528.83 1409.25 1527.27 Q1412.21 1525.68 1416.44 1525.68 Q1417.04 1525.68 1417.78 1525.77 Q1418.51 1525.84 1419.4 1526 L1419.43 1532.01 Z" fill="#000000" fill-rule="evenodd" fill-opacity="1" /><path clip-path="url(#clip850)" d="M 0 0 M1424.97 1548.12 L1424.97 1526.54 L1430.83 1526.54 L1430.83 1547.89 Q1430.83 1552.96 1432.8 1555.5 Q1434.77 1558.02 1438.72 1558.02 Q1443.46 1558.02 1446.2 1554.99 Q1448.97 1551.97 1448.97 1546.75 L1448.97 1526.54 L1454.82 1526.54 L1454.82 1562.19 L1448.97 1562.19 L1448.97 1556.71 Q1446.84 1559.96 1444 1561.55 Q1441.2 1563.11 1437.48 1563.11 Q1431.33 1563.11 1428.15 1559.29 Q1424.97 1555.47 1424.97 1548.12 M1439.71 1525.68 L1439.71 1525.68 Z" fill="#000000" fill-rule="evenodd" fill-opacity="1" /><path clip-path="url(#clip850)" d="M 0 0 M1486.62 1527.91 L1486.62 1533.38 Q1484.14 1532.01 1481.62 1531.34 Q1479.14 1530.64 1476.6 1530.64 Q1470.9 1530.64 1467.75 1534.27 Q1464.6 1537.87 1464.6 1544.39 Q1464.6 1550.92 1467.75 1554.55 Q1470.9 1558.14 1476.6 1558.14 Q1479.14 1558.14 1481.62 1557.47 Q1484.14 1556.77 1486.62 1555.41 L1486.62 1560.82 Q1484.17 1561.96 1481.53 1562.54 Q1478.92 1563.11 1475.96 1563.11 Q1467.91 1563.11 1463.16 1558.05 Q1458.42 1552.99 1458.42 1544.39 Q1458.42 1535.67 1463.2 1530.68 Q1468 1525.68 1476.34 1525.68 Q1479.05 1525.68 1481.62 1526.25 Q1484.2 1526.79 1486.62 1527.91 Z" fill="#000000" fill-rule="evenodd" fill-opacity="1" /><path clip-path="url(#clip850)" d="M 0 0 M1498.56 1516.42 L1498.56 1526.54 L1510.62 1526.54 L1510.62 1531.09 L1498.56 1531.09 L1498.56 1550.44 Q1498.56 1554.8 1499.73 1556.04 Q1500.94 1557.28 1504.6 1557.28 L1510.62 1557.28 L1510.62 1562.19 L1504.6 1562.19 Q1497.82 1562.19 1495.25 1559.67 Q1492.67 1557.12 1492.67 1550.44 L1492.67 1531.09 L1488.37 1531.09 L1488.37 1526.54 L1492.67 1526.54 L1492.67 1516.42 L1498.56 1516.42 Z" fill="#000000" fill-rule="evenodd" fill-opacity="1" /><path clip-path="url(#clip850)" d="M 0 0 M1516.76 1526.54 L1522.62 1526.54 L1522.62 1562.19 L1516.76 1562.19 L1516.76 1526.54 M1516.76 1512.66 L1522.62 1512.66 L1522.62 1520.08 L1516.76 1520.08 L1516.76 1512.66 Z" fill="#000000" fill-rule="evenodd" fill-opacity="1" /><path clip-path="url(#clip850)" d="M 0 0 M1542.58 1530.64 Q1537.87 1530.64 1535.13 1534.34 Q1532.39 1538 1532.39 1544.39 Q1532.39 1550.79 1535.1 1554.48 Q1537.83 1558.14 1542.58 1558.14 Q1547.25 1558.14 1549.99 1554.45 Q1552.73 1550.76 1552.73 1544.39 Q1552.73 1538.06 1549.99 1534.37 Q1547.25 1530.64 1542.58 1530.64 M1542.58 1525.68 Q1550.21 1525.68 1554.57 1530.64 Q1558.94 1535.61 1558.94 1544.39 Q1558.94 1553.15 1554.57 1558.14 Q1550.21 1563.11 1542.58 1563.11 Q1534.9 1563.11 1530.54 1558.14 Q1526.22 1553.15 1526.22 1544.39 Q1526.22 1535.61 1530.54 1530.64 Q1534.9 1525.68 1542.58 1525.68 Z" fill="#000000" fill-rule="evenodd" fill-opacity="1" /><path clip-path="url(#clip850)" d="M 0 0 M1594.71 1540.67 L1594.71 1562.19 L1588.85 1562.19 L1588.85 1540.86 Q1588.85 1535.8 1586.88 1533.29 Q1584.91 1530.77 1580.96 1530.77 Q1576.22 1530.77 1573.48 1533.79 Q1570.74 1536.82 1570.74 1542.04 L1570.74 1562.19 L1564.86 1562.19 L1564.86 1526.54 L1570.74 1526.54 L1570.74 1532.08 Q1572.84 1528.86 1575.68 1527.27 Q1578.54 1525.68 1582.27 1525.68 Q1588.41 1525.68 1591.56 1529.5 Q1594.71 1533.29 1594.71 1540.67 Z" fill="#000000" fill-rule="evenodd" fill-opacity="1" /><path clip-path="url(#clip850)" d="M 0 0 M1623.58 1527.59 L1623.58 1533.13 Q1621.1 1531.85 1618.42 1531.22 Q1615.75 1530.58 1612.88 1530.58 Q1608.52 1530.58 1606.33 1531.92 Q1604.16 1533.25 1604.16 1535.93 Q1604.16 1537.96 1605.72 1539.14 Q1607.28 1540.29 1611.99 1541.34 L1614 1541.78 Q1620.24 1543.12 1622.85 1545.57 Q1625.49 1547.99 1625.49 1552.35 Q1625.49 1557.32 1621.54 1560.21 Q1617.63 1563.11 1610.75 1563.11 Q1607.89 1563.11 1604.77 1562.54 Q1601.68 1561.99 1598.24 1560.88 L1598.24 1554.83 Q1601.49 1556.52 1604.64 1557.38 Q1607.79 1558.21 1610.88 1558.21 Q1615.02 1558.21 1617.25 1556.81 Q1619.47 1555.37 1619.47 1552.8 Q1619.47 1550.41 1617.85 1549.14 Q1616.26 1547.86 1610.82 1546.68 L1608.78 1546.21 Q1603.34 1545.06 1600.92 1542.71 Q1598.5 1540.32 1598.5 1536.18 Q1598.5 1531.15 1602.06 1528.42 Q1605.63 1525.68 1612.18 1525.68 Q1615.43 1525.68 1618.3 1526.16 Q1621.16 1526.63 1623.58 1527.59 Z" fill="#000000" fill-rule="evenodd" fill-opacity="1" /><path clip-path="url(#clip850)" d="M 0 0 M40.4842 877.2 L40.4842 849.891 L45.895 849.891 L45.895 870.771 L59.8996 870.771 L59.8996 851.929 L65.3104 851.929 L65.3104 870.771 L88.0042 870.771 L88.0042 877.2 L40.4842 877.2 Z" fill="#000000" fill-rule="evenodd" fill-opacity="1" /><path clip-path="url(#clip850)" d="M 0 0 M57.8307 827.834 Q57.2578 828.821 57.0032 829.999 Q56.7167 831.144 56.7167 832.545 Q56.7167 837.51 59.9632 840.184 Q63.1779 842.826 69.2253 842.826 L88.0042 842.826 L88.0042 848.714 L52.3562 848.714 L52.3562 842.826 L57.8944 842.826 Q54.6479 840.979 53.0883 838.019 Q51.4968 835.059 51.4968 830.826 Q51.4968 830.221 51.5923 829.489 Q51.656 828.757 51.8151 827.866 L57.8307 827.834 Z" fill="#000000" fill-rule="evenodd" fill-opacity="1" /><path clip-path="url(#clip850)" d="M 0 0 M68.7161 792.632 L71.5806 792.632 L71.5806 819.559 Q77.6281 819.177 80.8109 815.93 Q83.9619 812.652 83.9619 806.827 Q83.9619 803.454 83.1344 800.303 Q82.3069 797.12 80.6518 794.001 L86.1899 794.001 Q87.5267 797.152 88.227 800.462 Q88.9272 803.772 88.9272 807.178 Q88.9272 815.708 83.9619 820.705 Q78.9967 825.67 70.5303 825.67 Q61.7774 825.67 56.6531 820.959 Q51.4968 816.217 51.4968 808.196 Q51.4968 801.003 56.1438 796.833 Q60.7589 792.632 68.7161 792.632 M66.9973 798.488 Q62.1912 798.552 59.3266 801.194 Q56.4621 803.804 56.4621 808.132 Q56.4621 813.034 59.2312 815.994 Q62.0002 818.922 67.0292 819.368 L66.9973 798.488 Z" fill="#000000" fill-rule="evenodd" fill-opacity="1" /><path clip-path="url(#clip850)" d="M 0 0 M70.212 782.988 Q76.6732 782.988 80.3653 780.346 Q84.0256 777.673 84.0256 773.026 Q84.0256 768.379 80.3653 765.705 Q76.6732 763.031 70.212 763.031 Q63.7508 763.031 60.0905 765.705 Q56.3984 768.379 56.3984 773.026 Q56.3984 777.673 60.0905 780.346 Q63.7508 782.988 70.212 782.988 M82.657 763.031 Q85.8398 764.877 87.3994 767.71 Q88.9272 770.511 88.9272 774.458 Q88.9272 780.919 83.771 784.993 Q78.6147 789.035 70.212 789.035 Q61.8093 789.035 56.6531 784.993 Q51.4968 780.919 51.4968 774.458 Q51.4968 770.511 53.0564 767.71 Q54.5842 764.877 57.7671 763.031 L52.3562 763.031 L52.3562 757.175 L101.563 757.175 L101.563 763.031 L82.657 763.031 Z" fill="#000000" fill-rule="evenodd" fill-opacity="1" /><path clip-path="url(#clip850)" d="M 0 0 M73.9359 751.637 L52.3562 751.637 L52.3562 745.78 L73.7131 745.78 Q78.7739 745.78 81.3202 743.807 Q83.8346 741.834 83.8346 737.887 Q83.8346 733.144 80.8109 730.407 Q77.7872 727.638 72.5673 727.638 L52.3562 727.638 L52.3562 721.782 L88.0042 721.782 L88.0042 727.638 L82.5296 727.638 Q85.7762 729.771 87.3676 732.603 Q88.9272 735.404 88.9272 739.128 Q88.9272 745.271 85.1078 748.454 Q81.2883 751.637 73.9359 751.637 M51.4968 736.9 L51.4968 736.9 Z" fill="#000000" fill-rule="evenodd" fill-opacity="1" /><path clip-path="url(#clip850)" d="M 0 0 M68.7161 685.147 L71.5806 685.147 L71.5806 712.074 Q77.6281 711.692 80.8109 708.445 Q83.9619 705.167 83.9619 699.343 Q83.9619 695.969 83.1344 692.818 Q82.3069 689.635 80.6518 686.516 L86.1899 686.516 Q87.5267 689.667 88.227 692.977 Q88.9272 696.287 88.9272 699.693 Q88.9272 708.223 83.9619 713.22 Q78.9967 718.185 70.5303 718.185 Q61.7774 718.185 56.6531 713.474 Q51.4968 708.732 51.4968 700.711 Q51.4968 693.518 56.1438 689.348 Q60.7589 685.147 68.7161 685.147 M66.9973 691.003 Q62.1912 691.067 59.3266 693.709 Q56.4621 696.319 56.4621 700.647 Q56.4621 705.549 59.2312 708.509 Q62.0002 711.437 67.0292 711.883 L66.9973 691.003 Z" fill="#000000" fill-rule="evenodd" fill-opacity="1" /><path clip-path="url(#clip850)" d="M 0 0 M66.4881 649.372 L88.0042 649.372 L88.0042 655.228 L66.679 655.228 Q61.6183 655.228 59.1038 657.202 Q56.5894 659.175 56.5894 663.122 Q56.5894 667.864 59.6131 670.601 Q62.6368 673.339 67.8567 673.339 L88.0042 673.339 L88.0042 679.227 L52.3562 679.227 L52.3562 673.339 L57.8944 673.339 Q54.6797 671.238 53.0883 668.405 Q51.4968 665.541 51.4968 661.817 Q51.4968 655.674 55.3163 652.523 Q59.1038 649.372 66.4881 649.372 Z" fill="#000000" fill-rule="evenodd" fill-opacity="1" /><path clip-path="url(#clip850)" d="M 0 0 M53.7248 617.575 L59.1993 617.575 Q57.8307 620.058 57.1623 622.572 Q56.4621 625.055 56.4621 627.601 Q56.4621 633.298 60.0905 636.449 Q63.6872 639.6 70.212 639.6 Q76.7369 639.6 80.3653 636.449 Q83.9619 633.298 83.9619 627.601 Q83.9619 625.055 83.2935 622.572 Q82.5933 620.058 81.2247 617.575 L86.6355 617.575 Q87.7814 620.026 88.3543 622.668 Q88.9272 625.278 88.9272 628.238 Q88.9272 636.29 83.8664 641.033 Q78.8057 645.775 70.212 645.775 Q61.491 645.775 56.4939 641.001 Q51.4968 636.195 51.4968 627.856 Q51.4968 625.15 52.0697 622.572 Q52.6108 619.994 53.7248 617.575 Z" fill="#000000" fill-rule="evenodd" fill-opacity="1" /><path clip-path="url(#clip850)" d="M 0 0 M91.3143 596.6 Q97.68 599.083 99.6216 601.438 Q101.563 603.793 101.563 607.74 L101.563 612.419 L96.6615 612.419 L96.6615 608.981 Q96.6615 606.562 95.5157 605.226 Q94.3699 603.889 90.1048 602.265 L87.4312 601.215 L52.3562 615.633 L52.3562 609.427 L80.238 598.287 L52.3562 587.147 L52.3562 580.94 L91.3143 596.6 Z" fill="#000000" fill-rule="evenodd" fill-opacity="1" /><path clip-path="url(#clip852)" d="
M346.257 85.838 L346.257 1372.3 L400.249 1372.3 L400.249 85.838 L346.257 85.838 L346.257 85.838  Z
  " fill="#009af9" fill-rule="evenodd" fill-opacity="1"/>
<polyline clip-path="url(#clip852)" style="stroke:#000000; stroke-width:4; stroke-opacity:1; fill:none" points="
  346.257,85.838 346.257,1372.3 400.249,1372.3 400.249,85.838 346.257,85.838 
  "/>
<path clip-path="url(#clip852)" d="
M400.249 1204.5 L400.249 1372.3 L454.241 1372.3 L454.241 1204.5 L400.249 1204.5 L400.249 1204.5  Z
  " fill="#009af9" fill-rule="evenodd" fill-opacity="1"/>
<polyline clip-path="url(#clip852)" style="stroke:#000000; stroke-width:4; stroke-opacity:1; fill:none" points="
  400.249,1204.5 400.249,1372.3 454.241,1372.3 454.241,1204.5 400.249,1204.5 
  "/>
<path clip-path="url(#clip852)" d="
M454.241 1314.62 L454.241 1372.3 L508.233 1372.3 L508.233 1314.62 L454.241 1314.62 L454.241 1314.62  Z
  " fill="#009af9" fill-rule="evenodd" fill-opacity="1"/>
<polyline clip-path="url(#clip852)" style="stroke:#000000; stroke-width:4; stroke-opacity:1; fill:none" points="
  454.241,1314.62 454.241,1372.3 508.233,1372.3 508.233,1314.62 454.241,1314.62 
  "/>
<path clip-path="url(#clip852)" d="
M508.233 1347.83 L508.233 1372.3 L562.224 1372.3 L562.224 1347.83 L508.233 1347.83 L508.233 1347.83  Z
  " fill="#009af9" fill-rule="evenodd" fill-opacity="1"/>
<polyline clip-path="url(#clip852)" style="stroke:#000000; stroke-width:4; stroke-opacity:1; fill:none" points="
  508.233,1347.83 508.233,1372.3 562.224,1372.3 562.224,1347.83 508.233,1347.83 
  "/>
<path clip-path="url(#clip852)" d="
M562.224 1358.32 L562.224 1372.3 L616.216 1372.3 L616.216 1358.32 L562.224 1358.32 L562.224 1358.32  Z
  " fill="#009af9" fill-rule="evenodd" fill-opacity="1"/>
<polyline clip-path="url(#clip852)" style="stroke:#000000; stroke-width:4; stroke-opacity:1; fill:none" points="
  562.224,1358.32 562.224,1372.3 616.216,1372.3 616.216,1358.32 562.224,1358.32 
  "/>
<path clip-path="url(#clip852)" d="
M616.216 1358.32 L616.216 1372.3 L670.208 1372.3 L670.208 1358.32 L616.216 1358.32 L616.216 1358.32  Z
  " fill="#009af9" fill-rule="evenodd" fill-opacity="1"/>
<polyline clip-path="url(#clip852)" style="stroke:#000000; stroke-width:4; stroke-opacity:1; fill:none" points="
  616.216,1358.32 616.216,1372.3 670.208,1372.3 670.208,1358.32 616.216,1358.32 
  "/>
<path clip-path="url(#clip852)" d="
M670.208 1372.3 L670.208 1372.3 L724.2 1372.3 L724.2 1372.3 L670.208 1372.3 L670.208 1372.3  Z
  " fill="#009af9" fill-rule="evenodd" fill-opacity="1"/>
<polyline clip-path="url(#clip852)" style="stroke:#000000; stroke-width:4; stroke-opacity:1; fill:none" points="
  670.208,1372.3 670.208,1372.3 724.2,1372.3 670.208,1372.3 
  "/>
<path clip-path="url(#clip852)" d="
M724.2 1368.81 L724.2 1372.3 L778.192 1372.3 L778.192 1368.81 L724.2 1368.81 L724.2 1368.81  Z
  " fill="#009af9" fill-rule="evenodd" fill-opacity="1"/>
<polyline clip-path="url(#clip852)" style="stroke:#000000; stroke-width:4; stroke-opacity:1; fill:none" points="
  724.2,1368.81 724.2,1372.3 778.192,1372.3 778.192,1368.81 724.2,1368.81 
  "/>
<path clip-path="url(#clip852)" d="
M778.192 1370.55 L778.192 1372.3 L832.184 1372.3 L832.184 1370.55 L778.192 1370.55 L778.192 1370.55  Z
  " fill="#009af9" fill-rule="evenodd" fill-opacity="1"/>
<polyline clip-path="url(#clip852)" style="stroke:#000000; stroke-width:4; stroke-opacity:1; fill:none" points="
  778.192,1370.55 778.192,1372.3 832.184,1372.3 832.184,1370.55 778.192,1370.55 
  "/>
<path clip-path="url(#clip852)" d="
M832.184 1372.3 L832.184 1372.3 L886.175 1372.3 L886.175 1372.3 L832.184 1372.3 L832.184 1372.3  Z
  " fill="#009af9" fill-rule="evenodd" fill-opacity="1"/>
<polyline clip-path="url(#clip852)" style="stroke:#000000; stroke-width:4; stroke-opacity:1; fill:none" points="
  832.184,1372.3 832.184,1372.3 886.175,1372.3 832.184,1372.3 
  "/>
<path clip-path="url(#clip852)" d="
M886.175 1372.3 L886.175 1372.3 L940.167 1372.3 L940.167 1372.3 L886.175 1372.3 L886.175 1372.3  Z
  " fill="#009af9" fill-rule="evenodd" fill-opacity="1"/>
<polyline clip-path="url(#clip852)" style="stroke:#000000; stroke-width:4; stroke-opacity:1; fill:none" points="
  886.175,1372.3 886.175,1372.3 940.167,1372.3 886.175,1372.3 
  "/>
<path clip-path="url(#clip852)" d="
M940.167 1368.81 L940.167 1372.3 L994.159 1372.3 L994.159 1368.81 L940.167 1368.81 L940.167 1368.81  Z
  " fill="#009af9" fill-rule="evenodd" fill-opacity="1"/>
<polyline clip-path="url(#clip852)" style="stroke:#000000; stroke-width:4; stroke-opacity:1; fill:none" points="
  940.167,1368.81 940.167,1372.3 994.159,1372.3 994.159,1368.81 940.167,1368.81 
  "/>
<path clip-path="url(#clip852)" d="
M994.159 1370.55 L994.159 1372.3 L1048.15 1372.3 L1048.15 1370.55 L994.159 1370.55 L994.159 1370.55  Z
  " fill="#009af9" fill-rule="evenodd" fill-opacity="1"/>
<polyline clip-path="url(#clip852)" style="stroke:#000000; stroke-width:4; stroke-opacity:1; fill:none" points="
  994.159,1370.55 994.159,1372.3 1048.15,1372.3 1048.15,1370.55 994.159,1370.55 
  "/>
<path clip-path="url(#clip852)" d="
M1048.15 1370.55 L1048.15 1372.3 L1102.14 1372.3 L1102.14 1370.55 L1048.15 1370.55 L1048.15 1370.55  Z
  " fill="#009af9" fill-rule="evenodd" fill-opacity="1"/>
<polyline clip-path="url(#clip852)" style="stroke:#000000; stroke-width:4; stroke-opacity:1; fill:none" points="
  1048.15,1370.55 1048.15,1372.3 1102.14,1372.3 1102.14,1370.55 1048.15,1370.55 
  "/>
<path clip-path="url(#clip852)" d="
M1102.14 1370.55 L1102.14 1372.3 L1156.13 1372.3 L1156.13 1370.55 L1102.14 1370.55 L1102.14 1370.55  Z
  " fill="#009af9" fill-rule="evenodd" fill-opacity="1"/>
<polyline clip-path="url(#clip852)" style="stroke:#000000; stroke-width:4; stroke-opacity:1; fill:none" points="
  1102.14,1370.55 1102.14,1372.3 1156.13,1372.3 1156.13,1370.55 1102.14,1370.55 
  "/>
<path clip-path="url(#clip852)" d="
M1156.13 1372.3 L1156.13 1372.3 L1210.13 1372.3 L1210.13 1372.3 L1156.13 1372.3 L1156.13 1372.3  Z
  " fill="#009af9" fill-rule="evenodd" fill-opacity="1"/>
<polyline clip-path="url(#clip852)" style="stroke:#000000; stroke-width:4; stroke-opacity:1; fill:none" points="
  1156.13,1372.3 1156.13,1372.3 1210.13,1372.3 1156.13,1372.3 
  "/>
<path clip-path="url(#clip852)" d="
M1210.13 1372.3 L1210.13 1372.3 L1264.12 1372.3 L1264.12 1372.3 L1210.13 1372.3 L1210.13 1372.3  Z
  " fill="#009af9" fill-rule="evenodd" fill-opacity="1"/>
<polyline clip-path="url(#clip852)" style="stroke:#000000; stroke-width:4; stroke-opacity:1; fill:none" points="
  1210.13,1372.3 1210.13,1372.3 1264.12,1372.3 1210.13,1372.3 
  "/>
<path clip-path="url(#clip852)" d="
M1264.12 1372.3 L1264.12 1372.3 L1318.11 1372.3 L1318.11 1372.3 L1264.12 1372.3 L1264.12 1372.3  Z
  " fill="#009af9" fill-rule="evenodd" fill-opacity="1"/>
<polyline clip-path="url(#clip852)" style="stroke:#000000; stroke-width:4; stroke-opacity:1; fill:none" points="
  1264.12,1372.3 1264.12,1372.3 1318.11,1372.3 1264.12,1372.3 
  "/>
<path clip-path="url(#clip852)" d="
M1318.11 1372.3 L1318.11 1372.3 L1372.1 1372.3 L1372.1 1372.3 L1318.11 1372.3 L1318.11 1372.3  Z
  " fill="#009af9" fill-rule="evenodd" fill-opacity="1"/>
<polyline clip-path="url(#clip852)" style="stroke:#000000; stroke-width:4; stroke-opacity:1; fill:none" points="
  1318.11,1372.3 1318.11,1372.3 1372.1,1372.3 1318.11,1372.3 
  "/>
<path clip-path="url(#clip852)" d="
M1372.1 1372.3 L1372.1 1372.3 L1426.09 1372.3 L1426.09 1372.3 L1372.1 1372.3 L1372.1 1372.3  Z
  " fill="#009af9" fill-rule="evenodd" fill-opacity="1"/>
<polyline clip-path="url(#clip852)" style="stroke:#000000; stroke-width:4; stroke-opacity:1; fill:none" points="
  1372.1,1372.3 1372.1,1372.3 1426.09,1372.3 1372.1,1372.3 
  "/>
<path clip-path="url(#clip852)" d="
M1426.09 1372.3 L1426.09 1372.3 L1480.09 1372.3 L1480.09 1372.3 L1426.09 1372.3 L1426.09 1372.3  Z
  " fill="#009af9" fill-rule="evenodd" fill-opacity="1"/>
<polyline clip-path="url(#clip852)" style="stroke:#000000; stroke-width:4; stroke-opacity:1; fill:none" points="
  1426.09,1372.3 1426.09,1372.3 1480.09,1372.3 1426.09,1372.3 
  "/>
<path clip-path="url(#clip852)" d="
M1480.09 1372.3 L1480.09 1372.3 L1534.08 1372.3 L1534.08 1372.3 L1480.09 1372.3 L1480.09 1372.3  Z
  " fill="#009af9" fill-rule="evenodd" fill-opacity="1"/>
<polyline clip-path="url(#clip852)" style="stroke:#000000; stroke-width:4; stroke-opacity:1; fill:none" points="
  1480.09,1372.3 1480.09,1372.3 1534.08,1372.3 1480.09,1372.3 
  "/>
<path clip-path="url(#clip852)" d="
M1534.08 1372.3 L1534.08 1372.3 L1588.07 1372.3 L1588.07 1372.3 L1534.08 1372.3 L1534.08 1372.3  Z
  " fill="#009af9" fill-rule="evenodd" fill-opacity="1"/>
<polyline clip-path="url(#clip852)" style="stroke:#000000; stroke-width:4; stroke-opacity:1; fill:none" points="
  1534.08,1372.3 1534.08,1372.3 1588.07,1372.3 1534.08,1372.3 
  "/>
<path clip-path="url(#clip852)" d="
M1588.07 1370.55 L1588.07 1372.3 L1642.06 1372.3 L1642.06 1370.55 L1588.07 1370.55 L1588.07 1370.55  Z
  " fill="#009af9" fill-rule="evenodd" fill-opacity="1"/>
<polyline clip-path="url(#clip852)" style="stroke:#000000; stroke-width:4; stroke-opacity:1; fill:none" points="
  1588.07,1370.55 1588.07,1372.3 1642.06,1372.3 1642.06,1370.55 1588.07,1370.55 
  "/>
<path clip-path="url(#clip852)" d="
M1642.06 1372.3 L1642.06 1372.3 L1696.05 1372.3 L1696.05 1372.3 L1642.06 1372.3 L1642.06 1372.3  Z
  " fill="#009af9" fill-rule="evenodd" fill-opacity="1"/>
<polyline clip-path="url(#clip852)" style="stroke:#000000; stroke-width:4; stroke-opacity:1; fill:none" points="
  1642.06,1372.3 1642.06,1372.3 1696.05,1372.3 1642.06,1372.3 
  "/>
<path clip-path="url(#clip852)" d="
M1696.05 1370.55 L1696.05 1372.3 L1750.04 1372.3 L1750.04 1370.55 L1696.05 1370.55 L1696.05 1370.55  Z
  " fill="#009af9" fill-rule="evenodd" fill-opacity="1"/>
<polyline clip-path="url(#clip852)" style="stroke:#000000; stroke-width:4; stroke-opacity:1; fill:none" points="
  1696.05,1370.55 1696.05,1372.3 1750.04,1372.3 1750.04,1370.55 1696.05,1370.55 
  "/>
<path clip-path="url(#clip852)" d="
M1750.04 1372.3 L1750.04 1372.3 L1804.04 1372.3 L1804.04 1372.3 L1750.04 1372.3 L1750.04 1372.3  Z
  " fill="#009af9" fill-rule="evenodd" fill-opacity="1"/>
<polyline clip-path="url(#clip852)" style="stroke:#000000; stroke-width:4; stroke-opacity:1; fill:none" points="
  1750.04,1372.3 1750.04,1372.3 1804.04,1372.3 1750.04,1372.3 
  "/>
<path clip-path="url(#clip852)" d="
M1804.04 1372.3 L1804.04 1372.3 L1858.03 1372.3 L1858.03 1372.3 L1804.04 1372.3 L1804.04 1372.3  Z
  " fill="#009af9" fill-rule="evenodd" fill-opacity="1"/>
<polyline clip-path="url(#clip852)" style="stroke:#000000; stroke-width:4; stroke-opacity:1; fill:none" points="
  1804.04,1372.3 1804.04,1372.3 1858.03,1372.3 1804.04,1372.3 
  "/>
<path clip-path="url(#clip852)" d="
M1858.03 1370.55 L1858.03 1372.3 L1912.02 1372.3 L1912.02 1370.55 L1858.03 1370.55 L1858.03 1370.55  Z
  " fill="#009af9" fill-rule="evenodd" fill-opacity="1"/>
<polyline clip-path="url(#clip852)" style="stroke:#000000; stroke-width:4; stroke-opacity:1; fill:none" points="
  1858.03,1370.55 1858.03,1372.3 1912.02,1372.3 1912.02,1370.55 1858.03,1370.55 
  "/>
<path clip-path="url(#clip852)" d="
M1912.02 1372.3 L1912.02 1372.3 L1966.01 1372.3 L1966.01 1372.3 L1912.02 1372.3 L1912.02 1372.3  Z
  " fill="#009af9" fill-rule="evenodd" fill-opacity="1"/>
<polyline clip-path="url(#clip852)" style="stroke:#000000; stroke-width:4; stroke-opacity:1; fill:none" points="
  1912.02,1372.3 1912.02,1372.3 1966.01,1372.3 1912.02,1372.3 
  "/>
<path clip-path="url(#clip852)" d="
M1966.01 1372.3 L1966.01 1372.3 L2020 1372.3 L2020 1372.3 L1966.01 1372.3 L1966.01 1372.3  Z
  " fill="#009af9" fill-rule="evenodd" fill-opacity="1"/>
<polyline clip-path="url(#clip852)" style="stroke:#000000; stroke-width:4; stroke-opacity:1; fill:none" points="
  1966.01,1372.3 1966.01,1372.3 2020,1372.3 1966.01,1372.3 
  "/>
<path clip-path="url(#clip852)" d="
M2020 1372.3 L2020 1372.3 L2074 1372.3 L2074 1372.3 L2020 1372.3 L2020 1372.3  Z
  " fill="#009af9" fill-rule="evenodd" fill-opacity="1"/>
<polyline clip-path="url(#clip852)" style="stroke:#000000; stroke-width:4; stroke-opacity:1; fill:none" points="
  2020,1372.3 2020,1372.3 2074,1372.3 2020,1372.3 
  "/>
<path clip-path="url(#clip852)" d="
M2074 1372.3 L2074 1372.3 L2127.99 1372.3 L2127.99 1372.3 L2074 1372.3 L2074 1372.3  Z
  " fill="#009af9" fill-rule="evenodd" fill-opacity="1"/>
<polyline clip-path="url(#clip852)" style="stroke:#000000; stroke-width:4; stroke-opacity:1; fill:none" points="
  2074,1372.3 2074,1372.3 2127.99,1372.3 2074,1372.3 
  "/>
<path clip-path="url(#clip852)" d="
M2127.99 1372.3 L2127.99 1372.3 L2181.98 1372.3 L2181.98 1372.3 L2127.99 1372.3 L2127.99 1372.3  Z
  " fill="#009af9" fill-rule="evenodd" fill-opacity="1"/>
<polyline clip-path="url(#clip852)" style="stroke:#000000; stroke-width:4; stroke-opacity:1; fill:none" points="
  2127.99,1372.3 2127.99,1372.3 2181.98,1372.3 2127.99,1372.3 
  "/>
<path clip-path="url(#clip852)" d="
M2181.98 1370.55 L2181.98 1372.3 L2235.97 1372.3 L2235.97 1370.55 L2181.98 1370.55 L2181.98 1370.55  Z
  " fill="#009af9" fill-rule="evenodd" fill-opacity="1"/>
<polyline clip-path="url(#clip852)" style="stroke:#000000; stroke-width:4; stroke-opacity:1; fill:none" points="
  2181.98,1370.55 2181.98,1372.3 2235.97,1372.3 2235.97,1370.55 2181.98,1370.55 
  "/>
<path clip-path="url(#clip850)" d="
M1830.6 213.659 L2281.98 213.659 L2281.98 92.6992 L1830.6 92.6992  Z
  " fill="#ffffff" fill-rule="evenodd" fill-opacity="1"/>
<polyline clip-path="url(#clip850)" style="stroke:#000000; stroke-width:4; stroke-opacity:1; fill:none" points="
  1830.6,213.659 2281.98,213.659 2281.98,92.6992 1830.6,92.6992 1830.6,213.659 
  "/>
<path clip-path="url(#clip850)" d="
M1854.19 177.371 L1995.74 177.371 L1995.74 128.987 L1854.19 128.987 L1854.19 177.371  Z
  " fill="#009af9" fill-rule="evenodd" fill-opacity="1"/>
<polyline clip-path="url(#clip850)" style="stroke:#000000; stroke-width:4; stroke-opacity:1; fill:none" points="
  1854.19,177.371 1995.74,177.371 1995.74,128.987 1854.19,128.987 1854.19,177.371 
  "/>
<path clip-path="url(#clip850)" d="M 0 0 M2019.33 135.899 L2039.19 135.899 L2039.19 139.834 L2024.01 139.834 L2024.01 150.019 L2037.71 150.019 L2037.71 153.955 L2024.01 153.955 L2024.01 170.459 L2019.33 170.459 L2019.33 135.899 Z" fill="#000000" fill-rule="evenodd" fill-opacity="1" /><path clip-path="url(#clip850)" d="M 0 0 M2055.24 148.515 Q2054.52 148.098 2053.66 147.913 Q2052.83 147.705 2051.81 147.705 Q2048.2 147.705 2046.26 150.066 Q2044.33 152.404 2044.33 156.802 L2044.33 170.459 L2040.05 170.459 L2040.05 144.533 L2044.33 144.533 L2044.33 148.561 Q2045.68 146.2 2047.83 145.066 Q2049.98 143.908 2053.06 143.908 Q2053.5 143.908 2054.03 143.978 Q2054.57 144.024 2055.21 144.14 L2055.24 148.515 Z" fill="#000000" fill-rule="evenodd" fill-opacity="1" /><path clip-path="url(#clip850)" d="M 0 0 M2080.84 156.431 L2080.84 158.515 L2061.25 158.515 Q2061.53 162.913 2063.89 165.228 Q2066.28 167.519 2070.51 167.519 Q2072.97 167.519 2075.26 166.918 Q2077.57 166.316 2079.84 165.112 L2079.84 169.14 Q2077.55 170.112 2075.14 170.621 Q2072.74 171.13 2070.26 171.13 Q2064.06 171.13 2060.42 167.519 Q2056.81 163.908 2056.81 157.751 Q2056.81 151.385 2060.24 147.658 Q2063.69 143.908 2069.52 143.908 Q2074.75 143.908 2077.78 147.288 Q2080.84 150.644 2080.84 156.431 M2076.58 155.181 Q2076.53 151.686 2074.61 149.603 Q2072.71 147.519 2069.57 147.519 Q2066 147.519 2063.85 149.533 Q2061.72 151.547 2061.39 155.205 L2076.58 155.181 Z" fill="#000000" fill-rule="evenodd" fill-opacity="1" /><path clip-path="url(#clip850)" d="M 0 0 M2087.85 157.519 Q2087.85 162.218 2089.77 164.904 Q2091.72 167.566 2095.1 167.566 Q2098.48 167.566 2100.42 164.904 Q2102.37 162.218 2102.37 157.519 Q2102.37 152.82 2100.42 150.158 Q2098.48 147.473 2095.1 147.473 Q2091.72 147.473 2089.77 150.158 Q2087.85 152.82 2087.85 157.519 M2102.37 166.57 Q2101.02 168.885 2098.96 170.019 Q2096.93 171.13 2094.06 171.13 Q2089.36 171.13 2086.39 167.38 Q2083.45 163.631 2083.45 157.519 Q2083.45 151.408 2086.39 147.658 Q2089.36 143.908 2094.06 143.908 Q2096.93 143.908 2098.96 145.043 Q2101.02 146.154 2102.37 148.469 L2102.37 144.533 L2106.63 144.533 L2106.63 180.32 L2102.37 180.32 L2102.37 166.57 Z" fill="#000000" fill-rule="evenodd" fill-opacity="1" /><path clip-path="url(#clip850)" d="M 0 0 M2110.65 160.228 L2110.65 144.533 L2114.91 144.533 L2114.91 160.066 Q2114.91 163.746 2116.35 165.598 Q2117.78 167.427 2120.65 167.427 Q2124.1 167.427 2126.09 165.228 Q2128.11 163.029 2128.11 159.232 L2128.11 144.533 L2132.37 144.533 L2132.37 170.459 L2128.11 170.459 L2128.11 166.478 Q2126.56 168.839 2124.5 169.996 Q2122.46 171.13 2119.75 171.13 Q2115.28 171.13 2112.97 168.353 Q2110.65 165.575 2110.65 160.228 M2121.37 143.908 L2121.37 143.908 Z" fill="#000000" fill-rule="evenodd" fill-opacity="1" /><path clip-path="url(#clip850)" d="M 0 0 M2159.01 156.431 L2159.01 158.515 L2139.43 158.515 Q2139.7 162.913 2142.06 165.228 Q2144.45 167.519 2148.69 167.519 Q2151.14 167.519 2153.43 166.918 Q2155.75 166.316 2158.01 165.112 L2158.01 169.14 Q2155.72 170.112 2153.31 170.621 Q2150.91 171.13 2148.43 171.13 Q2142.23 171.13 2138.59 167.519 Q2134.98 163.908 2134.98 157.751 Q2134.98 151.385 2138.41 147.658 Q2141.86 143.908 2147.69 143.908 Q2152.92 143.908 2155.95 147.288 Q2159.01 150.644 2159.01 156.431 M2154.75 155.181 Q2154.7 151.686 2152.78 149.603 Q2150.88 147.519 2147.74 147.519 Q2144.17 147.519 2142.02 149.533 Q2139.89 151.547 2139.56 155.205 L2154.75 155.181 Z" fill="#000000" fill-rule="evenodd" fill-opacity="1" /><path clip-path="url(#clip850)" d="M 0 0 M2185.03 154.811 L2185.03 170.459 L2180.77 170.459 L2180.77 154.95 Q2180.77 151.269 2179.33 149.441 Q2177.9 147.612 2175.03 147.612 Q2171.58 147.612 2169.59 149.811 Q2167.6 152.01 2167.6 155.806 L2167.6 170.459 L2163.31 170.459 L2163.31 144.533 L2167.6 144.533 L2167.6 148.561 Q2169.12 146.223 2171.18 145.066 Q2173.27 143.908 2175.98 143.908 Q2180.44 143.908 2182.74 146.686 Q2185.03 149.441 2185.03 154.811 Z" fill="#000000" fill-rule="evenodd" fill-opacity="1" /><path clip-path="url(#clip850)" d="M 0 0 M2208.15 145.529 L2208.15 149.51 Q2206.35 148.515 2204.52 148.029 Q2202.71 147.519 2200.86 147.519 Q2196.72 147.519 2194.43 150.158 Q2192.13 152.774 2192.13 157.519 Q2192.13 162.265 2194.43 164.904 Q2196.72 167.519 2200.86 167.519 Q2202.71 167.519 2204.52 167.033 Q2206.35 166.524 2208.15 165.529 L2208.15 169.464 Q2206.37 170.297 2204.45 170.714 Q2202.55 171.13 2200.4 171.13 Q2194.54 171.13 2191.09 167.45 Q2187.64 163.769 2187.64 157.519 Q2187.64 151.177 2191.12 147.543 Q2194.61 143.908 2200.68 143.908 Q2202.64 143.908 2204.52 144.325 Q2206.39 144.719 2208.15 145.529 Z" fill="#000000" fill-rule="evenodd" fill-opacity="1" /><path clip-path="url(#clip850)" d="M 0 0 M2223.41 172.867 Q2221.6 177.496 2219.89 178.908 Q2218.18 180.32 2215.31 180.32 L2211.9 180.32 L2211.9 176.755 L2214.4 176.755 Q2216.16 176.755 2217.13 175.922 Q2218.11 175.089 2219.29 171.987 L2220.05 170.043 L2209.56 144.533 L2214.08 144.533 L2222.18 164.811 L2230.28 144.533 L2234.8 144.533 L2223.41 172.867 Z" fill="#000000" fill-rule="evenodd" fill-opacity="1" /></svg>
